<svg xmlns="http://www.w3.org/2000/svg" viewBox="0 0 800 600" width="800" height="600" shape-rendering="crispEdges">
  <defs>
    <pattern id="rain-pattern" x="0" y="0" width="800" height="600" patternUnits="userSpaceOnUse">
      <g>
        <!-- Row 1 -->
        <rect x="20"  y="10"  width="4" height="12" fill="#50FC00" opacity="0.5"/>
        <rect x="60"  y="80"  width="4" height="8"  fill="#50FC00" opacity="0.5"/>
        <rect x="100" y="30"  width="4" height="4"  fill="#50FC00" opacity="0.45"/>
        <rect x="140" y="120" width="4" height="12" fill="#50FC00" opacity="0.5"/>
        <rect x="180" y="60"  width="4" height="8"  fill="#50FC00" opacity="0.5"/>
        <rect x="220" y="150" width="4" height="4"  fill="#50FC00" opacity="0.45"/>
        <rect x="260" y="20"  width="4" height="12" fill="#50FC00" opacity="0.5"/>
        <rect x="300" y="100" width="4" height="8"  fill="#50FC00" opacity="0.5"/>
        <rect x="340" y="50"  width="4" height="4"  fill="#50FC00" opacity="0.45"/>
        <rect x="380" y="140" width="4" height="12" fill="#50FC00" opacity="0.5"/>
        <rect x="420" y="70"  width="4" height="8"  fill="#50FC00" opacity="0.5"/>
        <rect x="460" y="160" width="4" height="4"  fill="#50FC00" opacity="0.45"/>
        <rect x="500" y="40"  width="4" height="12" fill="#50FC00" opacity="0.5"/>
        <rect x="540" y="110" width="4" height="8"  fill="#50FC00" opacity="0.5"/>
        <rect x="580" y="90"  width="4" height="4"  fill="#50FC00" opacity="0.45"/>
        <rect x="620" y="130" width="4" height="12" fill="#50FC00" opacity="0.5"/>
        <rect x="660" y="55"  width="4" height="8"  fill="#50FC00" opacity="0.5"/>
        <rect x="700" y="170" width="4" height="4"  fill="#50FC00" opacity="0.45"/>
        <rect x="740" y="15"  width="4" height="12" fill="#50FC00" opacity="0.5"/>
        <rect x="780" y="95"  width="4" height="8"  fill="#50FC00" opacity="0.5"/>

        <!-- Row 2 -->
        <rect x="20"  y="210" width="4" height="12" fill="#50FC00" opacity="0.5"/>
        <rect x="60"  y="280" width="4" height="8"  fill="#50FC00" opacity="0.5"/>
        <rect x="100" y="230" width="4" height="4"  fill="#50FC00" opacity="0.45"/>
        <rect x="140" y="320" width="4" height="12" fill="#50FC00" opacity="0.5"/>
        <rect x="180" y="260" width="4" height="8"  fill="#50FC00" opacity="0.5"/>
        <rect x="220" y="350" width="4" height="4"  fill="#50FC00" opacity="0.45"/>
        <rect x="260" y="220" width="4" height="12" fill="#50FC00" opacity="0.5"/>
        <rect x="300" y="300" width="4" height="8"  fill="#50FC00" opacity="0.5"/>
        <rect x="340" y="250" width="4" height="4"  fill="#50FC00" opacity="0.45"/>
        <rect x="380" y="340" width="4" height="12" fill="#50FC00" opacity="0.5"/>
        <rect x="420" y="270" width="4" height="8"  fill="#50FC00" opacity="0.5"/>
        <rect x="460" y="360" width="4" height="4"  fill="#50FC00" opacity="0.45"/>
        <rect x="500" y="240" width="4" height="12" fill="#50FC00" opacity="0.5"/>
        <rect x="540" y="310" width="4" height="8"  fill="#50FC00" opacity="0.5"/>
        <rect x="580" y="290" width="4" height="4"  fill="#50FC00" opacity="0.45"/>
        <rect x="620" y="330" width="4" height="12" fill="#50FC00" opacity="0.5"/>
        <rect x="660" y="255" width="4" height="8"  fill="#50FC00" opacity="0.5"/>
        <rect x="700" y="370" width="4" height="4"  fill="#50FC00" opacity="0.45"/>
        <rect x="740" y="215" width="4" height="12" fill="#50FC00" opacity="0.5"/>
        <rect x="780" y="295" width="4" height="8"  fill="#50FC00" opacity="0.5"/>

        <!-- Row 3 -->
        <rect x="20"  y="410" width="4" height="12" fill="#50FC00" opacity="0.5"/>
        <rect x="60"  y="480" width="4" height="8"  fill="#50FC00" opacity="0.5"/>
        <rect x="100" y="430" width="4" height="4"  fill="#50FC00" opacity="0.45"/>
        <rect x="140" y="520" width="4" height="12" fill="#50FC00" opacity="0.5"/>
        <rect x="180" y="460" width="4" height="8"  fill="#50FC00" opacity="0.5"/>
        <rect x="220" y="550" width="4" height="4"  fill="#50FC00" opacity="0.45"/>
        <rect x="260" y="420" width="4" height="12" fill="#50FC00" opacity="0.5"/>
        <rect x="300" y="500" width="4" height="8"  fill="#50FC00" opacity="0.5"/>
        <rect x="340" y="450" width="4" height="4"  fill="#50FC00" opacity="0.45"/>
        <rect x="380" y="540" width="4" height="12" fill="#50FC00" opacity="0.5"/>
        <rect x="420" y="470" width="4" height="8"  fill="#50FC00" opacity="0.5"/>
        <rect x="460" y="560" width="4" height="4"  fill="#50FC00" opacity="0.45"/>
        <rect x="500" y="440" width="4" height="12" fill="#50FC00" opacity="0.5"/>
        <rect x="540" y="510" width="4" height="8"  fill="#50FC00" opacity="0.5"/>
        <rect x="580" y="490" width="4" height="4"  fill="#50FC00" opacity="0.45"/>
        <rect x="620" y="530" width="4" height="12" fill="#50FC00" opacity="0.5"/>
        <rect x="660" y="455" width="4" height="8"  fill="#50FC00" opacity="0.5"/>
        <rect x="700" y="570" width="4" height="4"  fill="#50FC00" opacity="0.45"/>
        <rect x="740" y="415" width="4" height="12" fill="#50FC00" opacity="0.5"/>
        <rect x="780" y="495" width="4" height="8"  fill="#50FC00" opacity="0.5"/>

        <!-- Row 4 — extra density fill -->
        <rect x="40"  y="310" width="4" height="8"  fill="#50FC00" opacity="0.5"/>
        <rect x="80"  y="390" width="4" height="12" fill="#50FC00" opacity="0.45"/>
        <rect x="120" y="340" width="4" height="4"  fill="#50FC00" opacity="0.5"/>
        <rect x="160" y="420" width="4" height="8"  fill="#50FC00" opacity="0.5"/>
        <rect x="200" y="370" width="4" height="12" fill="#50FC00" opacity="0.45"/>
        <rect x="240" y="440" width="4" height="4"  fill="#50FC00" opacity="0.5"/>
        <rect x="280" y="380" width="4" height="8"  fill="#50FC00" opacity="0.5"/>
        <rect x="320" y="430" width="4" height="12" fill="#50FC00" opacity="0.45"/>
        <rect x="360" y="400" width="4" height="4"  fill="#50FC00" opacity="0.5"/>
        <rect x="400" y="350" width="4" height="8"  fill="#50FC00" opacity="0.5"/>
        <rect x="440" y="410" width="4" height="12" fill="#50FC00" opacity="0.45"/>
        <rect x="480" y="390" width="4" height="4"  fill="#50FC00" opacity="0.5"/>
        <rect x="520" y="360" width="4" height="8"  fill="#50FC00" opacity="0.5"/>
        <rect x="560" y="420" width="4" height="12" fill="#50FC00" opacity="0.45"/>
        <rect x="600" y="400" width="4" height="4"  fill="#50FC00" opacity="0.5"/>
        <rect x="640" y="370" width="4" height="8"  fill="#50FC00" opacity="0.5"/>
        <rect x="680" y="430" width="4" height="12" fill="#50FC00" opacity="0.45"/>
        <rect x="720" y="380" width="4" height="4"  fill="#50FC00" opacity="0.5"/>
        <rect x="760" y="410" width="4" height="8"  fill="#50FC00" opacity="0.5"/>

        <animateTransform
          attributeName="transform"
          type="translate"
          values="0 0; 80 600"
          keyTimes="0;1"
          dur="3s"
          repeatCount="indefinite"/>
      </g>
    </pattern>
  </defs>
  <rect x="0" y="0" width="800" height="600" fill="url(#rain-pattern)"/>
</svg>
