<svg xmlns="http://www.w3.org/2000/svg" viewBox="0 0 800 450" width="800" height="450" shape-rendering="crispEdges">
  <defs>
    <style>
      .bg     { fill: #0d1117; }
      .hi     { fill: #5bb3ff; }
      .mid    { fill: #1f71eb; }
      .shadow { fill: #2363d1; }
      @media (prefers-color-scheme: light) {
        .bg     { fill: #e2f2ff; }
        .hi     { fill: #1f71eb; }
        .mid    { fill: #0092ff; }
        .shadow { fill: #1f71eb; }
      }
    </style>
  </defs>

  <!-- Background -->
  <rect x="0" y="0" width="800" height="450" class="bg"/>

  <!-- Title bar -->
  <rect x="220" y="120" width="360" height="36" class="shadow"/>
  <rect x="220" y="120" width="8"   height="36" class="shadow"/>
  <rect x="572" y="120" width="8"   height="36" class="shadow"/>

  <!-- Window body outline -->
  <rect x="220" y="156" width="8"   height="180" class="mid"/>
  <rect x="572" y="156" width="8"   height="180" class="mid"/>
  <rect x="220" y="328" width="360" height="8"   class="mid"/>

  <!-- Title bar dots -->
  <rect x="236" y="130" width="16" height="16" class="hi"/>
  <rect x="260" y="130" width="16" height="16" class="hi"/>
  <rect x="284" y="130" width="16" height="16" class="hi"/>

  <!-- Title bar label block -->
  <rect x="400" y="134" width="120" height="8" class="hi" opacity="0.6"/>

  <!-- Terminal content — prompt and cursor -->
  <rect x="244" y="180" width="20" height="12" class="hi"/>
  <rect x="272" y="180" width="8"  height="12" class="mid"/>
  <rect x="288" y="176" width="20" height="20" class="mid"/>

  <!-- Command line -->
  <rect x="244" y="212" width="20"  height="8" class="hi"/>
  <rect x="272" y="212" width="100" height="8" class="mid"/>

  <!-- Output lines -->
  <rect x="244" y="236" width="240" height="8" class="shadow"/>
  <rect x="244" y="252" width="180" height="8" class="shadow"/>
  <rect x="244" y="268" width="220" height="8" class="shadow"/>

  <!-- Second prompt with cursor -->
  <rect x="244" y="296" width="20" height="8"  class="hi"/>
  <rect x="272" y="292" width="20" height="20" class="mid"/>
</svg>
