<svg xmlns="http://www.w3.org/2000/svg" viewBox="0 0 96 64" width="96" height="64" shape-rendering="crispEdges">
  <g fill="#1f71eb">
    <rect x="32" y="8"  width="8" height="8"/>
    <rect x="40" y="8"  width="8" height="8"/>
    <rect x="56" y="8"  width="8" height="8"/>
    <rect x="24" y="16" width="8" height="8"/>
    <rect x="32" y="16" width="8" height="8"/>
    <rect x="40" y="16" width="8" height="8"/>
    <rect x="48" y="16" width="8" height="8"/>
    <rect x="56" y="16" width="8" height="8"/>
    <rect x="64" y="16" width="8" height="8"/>
    <rect x="16" y="24" width="8" height="8"/>
    <rect x="24" y="24" width="8" height="8"/>
    <rect x="32" y="24" width="8" height="8"/>
    <rect x="40" y="24" width="8" height="8"/>
    <rect x="48" y="24" width="8" height="8"/>
    <rect x="56" y="24" width="8" height="8"/>
    <rect x="64" y="24" width="8" height="8"/>
    <rect x="72" y="24" width="8" height="8"/>
    <rect x="16" y="32" width="8" height="8"/>
    <rect x="24" y="32" width="8" height="8"/>
    <rect x="32" y="32" width="8" height="8"/>
    <rect x="40" y="32" width="8" height="8"/>
    <rect x="48" y="32" width="8" height="8"/>
    <rect x="56" y="32" width="8" height="8"/>
    <rect x="64" y="32" width="8" height="8"/>
    <rect x="72" y="32" width="8" height="8"/>
    <rect x="24" y="40" width="8" height="8"/>
    <rect x="32" y="40" width="8" height="8"/>
    <rect x="40" y="40" width="8" height="8"/>
    <rect x="48" y="40" width="8" height="8"/>
    <rect x="56" y="40" width="8" height="8"/>
    <rect x="64" y="40" width="8" height="8"/>
  </g>
  <g fill="#0d1117">
    <rect x="32" y="32" width="8" height="8"/>
    <rect x="40" y="32" width="8" height="4"/>
  </g>
</svg>
