<svg xmlns="http://www.w3.org/2000/svg" viewBox="0 0 800 600" width="800" height="600" shape-rendering="crispEdges">
  <defs>
    <style>
      .cloud-far  { fill: #5e6fa3; }
      .cloud-mid  { fill: #689cc5; }
      .cloud-near { fill: #1f71eb; }
      @media (prefers-color-scheme: light) {
        .cloud-near { fill: #0092ff; }
      }
    </style>

    <g id="mini-cloud">
      <rect x="18" y="0"  width="6" height="6"/>
      <rect x="24" y="0"  width="6" height="6"/>
      <rect x="36" y="0"  width="6" height="6"/>
      <rect x="42" y="0"  width="6" height="6"/>
      <rect x="12" y="6"  width="6" height="6"/>
      <rect x="30" y="6"  width="6" height="6"/>
      <rect x="48" y="6"  width="6" height="6"/>
      <rect x="6"  y="12" width="6" height="6"/>
      <rect x="54" y="12" width="6" height="6"/>
      <rect x="0"  y="18" width="6" height="6"/>
      <rect x="60" y="18" width="6" height="6"/>
      <rect x="0"  y="24" width="6" height="6"/>
      <rect x="6"  y="24" width="6" height="6"/>
      <rect x="12" y="24" width="6" height="6"/>
      <rect x="18" y="24" width="6" height="6"/>
      <rect x="24" y="24" width="6" height="6"/>
      <rect x="30" y="24" width="6" height="6"/>
      <rect x="36" y="24" width="6" height="6"/>
      <rect x="42" y="24" width="6" height="6"/>
      <rect x="48" y="24" width="6" height="6"/>
      <rect x="54" y="24" width="6" height="6"/>
      <rect x="60" y="24" width="6" height="6"/>
      <rect x="18" y="18" width="6" height="3" opacity="0.5"/>
      <rect x="36" y="18" width="6" height="3" opacity="0.5"/>
    </g>

    <!-- One pattern, three layers, each cloud tiled 3x3 like Blowfish's rain.
         Translate exactly one tile (-520 520) => seamless, no seam, even density. -->
    <pattern id="clouds" x="0" y="0" width="520" height="520" patternUnits="userSpaceOnUse">
      <g class="cloud-far" opacity="0.5">
        <use href="#mini-cloud" transform="translate(-440 -430) scale(0.6)"/>
        <use href="#mini-cloud" transform="translate(-440 90) scale(0.6)"/>
        <use href="#mini-cloud" transform="translate(-440 610) scale(0.6)"/>
        <use href="#mini-cloud" transform="translate(80 -430) scale(0.6)"/>
        <use href="#mini-cloud" transform="translate(80 90) scale(0.6)"/>
        <use href="#mini-cloud" transform="translate(80 610) scale(0.6)"/>
        <use href="#mini-cloud" transform="translate(600 -430) scale(0.6)"/>
        <use href="#mini-cloud" transform="translate(600 90) scale(0.6)"/>
        <use href="#mini-cloud" transform="translate(600 610) scale(0.6)"/>
        <use href="#mini-cloud" transform="translate(-190 -340) scale(0.55)"/>
        <use href="#mini-cloud" transform="translate(-190 180) scale(0.55)"/>
        <use href="#mini-cloud" transform="translate(-190 700) scale(0.55)"/>
        <use href="#mini-cloud" transform="translate(330 -340) scale(0.55)"/>
        <use href="#mini-cloud" transform="translate(330 180) scale(0.55)"/>
        <use href="#mini-cloud" transform="translate(330 700) scale(0.55)"/>
        <use href="#mini-cloud" transform="translate(850 -340) scale(0.55)"/>
        <use href="#mini-cloud" transform="translate(850 180) scale(0.55)"/>
        <use href="#mini-cloud" transform="translate(850 700) scale(0.55)"/>
        <use href="#mini-cloud" transform="translate(-340 -160) scale(0.6)"/>
        <use href="#mini-cloud" transform="translate(-340 360) scale(0.6)"/>
        <use href="#mini-cloud" transform="translate(-340 880) scale(0.6)"/>
        <use href="#mini-cloud" transform="translate(180 -160) scale(0.6)"/>
        <use href="#mini-cloud" transform="translate(180 360) scale(0.6)"/>
        <use href="#mini-cloud" transform="translate(180 880) scale(0.6)"/>
        <use href="#mini-cloud" transform="translate(700 -160) scale(0.6)"/>
        <use href="#mini-cloud" transform="translate(700 360) scale(0.6)"/>
        <use href="#mini-cloud" transform="translate(700 880) scale(0.6)"/>
        <use href="#mini-cloud" transform="translate(-100 -80) scale(0.55)"/>
        <use href="#mini-cloud" transform="translate(-100 440) scale(0.55)"/>
        <use href="#mini-cloud" transform="translate(-100 960) scale(0.55)"/>
        <use href="#mini-cloud" transform="translate(420 -80) scale(0.55)"/>
        <use href="#mini-cloud" transform="translate(420 440) scale(0.55)"/>
        <use href="#mini-cloud" transform="translate(420 960) scale(0.55)"/>
        <use href="#mini-cloud" transform="translate(940 -80) scale(0.55)"/>
        <use href="#mini-cloud" transform="translate(940 440) scale(0.55)"/>
        <use href="#mini-cloud" transform="translate(940 960) scale(0.55)"/>
        <use href="#mini-cloud" transform="translate(-260 -270) scale(0.6)"/>
        <use href="#mini-cloud" transform="translate(-260 250) scale(0.6)"/>
        <use href="#mini-cloud" transform="translate(-260 770) scale(0.6)"/>
        <use href="#mini-cloud" transform="translate(260 -270) scale(0.6)"/>
        <use href="#mini-cloud" transform="translate(260 250) scale(0.6)"/>
        <use href="#mini-cloud" transform="translate(260 770) scale(0.6)"/>
        <use href="#mini-cloud" transform="translate(780 -270) scale(0.6)"/>
        <use href="#mini-cloud" transform="translate(780 250) scale(0.6)"/>
        <use href="#mini-cloud" transform="translate(780 770) scale(0.6)"/>
        <animateTransform attributeName="transform" type="translate"
          values="0 0; -520 520" keyTimes="0;1" dur="30s"
          repeatCount="indefinite" calcMode="linear"/>
      </g>
      <g class="cloud-mid" opacity="0.7">
        <use href="#mini-cloud" transform="translate(-320 -460) scale(0.75)"/>
        <use href="#mini-cloud" transform="translate(-320 60) scale(0.75)"/>
        <use href="#mini-cloud" transform="translate(-320 580) scale(0.75)"/>
        <use href="#mini-cloud" transform="translate(200 -460) scale(0.75)"/>
        <use href="#mini-cloud" transform="translate(200 60) scale(0.75)"/>
        <use href="#mini-cloud" transform="translate(200 580) scale(0.75)"/>
        <use href="#mini-cloud" transform="translate(720 -460) scale(0.75)"/>
        <use href="#mini-cloud" transform="translate(720 60) scale(0.75)"/>
        <use href="#mini-cloud" transform="translate(720 580) scale(0.75)"/>
        <use href="#mini-cloud" transform="translate(-90 -260) scale(0.7)"/>
        <use href="#mini-cloud" transform="translate(-90 260) scale(0.7)"/>
        <use href="#mini-cloud" transform="translate(-90 780) scale(0.7)"/>
        <use href="#mini-cloud" transform="translate(430 -260) scale(0.7)"/>
        <use href="#mini-cloud" transform="translate(430 260) scale(0.7)"/>
        <use href="#mini-cloud" transform="translate(430 780) scale(0.7)"/>
        <use href="#mini-cloud" transform="translate(950 -260) scale(0.7)"/>
        <use href="#mini-cloud" transform="translate(950 260) scale(0.7)"/>
        <use href="#mini-cloud" transform="translate(950 780) scale(0.7)"/>
        <use href="#mini-cloud" transform="translate(-460 -220) scale(0.75)"/>
        <use href="#mini-cloud" transform="translate(-460 300) scale(0.75)"/>
        <use href="#mini-cloud" transform="translate(-460 820) scale(0.75)"/>
        <use href="#mini-cloud" transform="translate(60 -220) scale(0.75)"/>
        <use href="#mini-cloud" transform="translate(60 300) scale(0.75)"/>
        <use href="#mini-cloud" transform="translate(60 820) scale(0.75)"/>
        <use href="#mini-cloud" transform="translate(580 -220) scale(0.75)"/>
        <use href="#mini-cloud" transform="translate(580 300) scale(0.75)"/>
        <use href="#mini-cloud" transform="translate(580 820) scale(0.75)"/>
        <use href="#mini-cloud" transform="translate(-210 -70) scale(0.7)"/>
        <use href="#mini-cloud" transform="translate(-210 450) scale(0.7)"/>
        <use href="#mini-cloud" transform="translate(-210 970) scale(0.7)"/>
        <use href="#mini-cloud" transform="translate(310 -70) scale(0.7)"/>
        <use href="#mini-cloud" transform="translate(310 450) scale(0.7)"/>
        <use href="#mini-cloud" transform="translate(310 970) scale(0.7)"/>
        <use href="#mini-cloud" transform="translate(830 -70) scale(0.7)"/>
        <use href="#mini-cloud" transform="translate(830 450) scale(0.7)"/>
        <use href="#mini-cloud" transform="translate(830 970) scale(0.7)"/>
        <animateTransform attributeName="transform" type="translate"
          values="0 0; -520 520" keyTimes="0;1" dur="20s"
          repeatCount="indefinite" calcMode="linear"/>
      </g>
      <g class="cloud-near" opacity="0.9">
        <use href="#mini-cloud" transform="translate(-380 -370) scale(0.95)"/>
        <use href="#mini-cloud" transform="translate(-380 150) scale(0.95)"/>
        <use href="#mini-cloud" transform="translate(-380 670) scale(0.95)"/>
        <use href="#mini-cloud" transform="translate(140 -370) scale(0.95)"/>
        <use href="#mini-cloud" transform="translate(140 150) scale(0.95)"/>
        <use href="#mini-cloud" transform="translate(140 670) scale(0.95)"/>
        <use href="#mini-cloud" transform="translate(660 -370) scale(0.95)"/>
        <use href="#mini-cloud" transform="translate(660 150) scale(0.95)"/>
        <use href="#mini-cloud" transform="translate(660 670) scale(0.95)"/>
        <use href="#mini-cloud" transform="translate(-130 -410) scale(0.9)"/>
        <use href="#mini-cloud" transform="translate(-130 110) scale(0.9)"/>
        <use href="#mini-cloud" transform="translate(-130 630) scale(0.9)"/>
        <use href="#mini-cloud" transform="translate(390 -410) scale(0.9)"/>
        <use href="#mini-cloud" transform="translate(390 110) scale(0.9)"/>
        <use href="#mini-cloud" transform="translate(390 630) scale(0.9)"/>
        <use href="#mini-cloud" transform="translate(910 -410) scale(0.9)"/>
        <use href="#mini-cloud" transform="translate(910 110) scale(0.9)"/>
        <use href="#mini-cloud" transform="translate(910 630) scale(0.9)"/>
        <use href="#mini-cloud" transform="translate(-270 -130) scale(0.95)"/>
        <use href="#mini-cloud" transform="translate(-270 390) scale(0.95)"/>
        <use href="#mini-cloud" transform="translate(-270 910) scale(0.95)"/>
        <use href="#mini-cloud" transform="translate(250 -130) scale(0.95)"/>
        <use href="#mini-cloud" transform="translate(250 390) scale(0.95)"/>
        <use href="#mini-cloud" transform="translate(250 910) scale(0.95)"/>
        <use href="#mini-cloud" transform="translate(770 -130) scale(0.95)"/>
        <use href="#mini-cloud" transform="translate(770 390) scale(0.95)"/>
        <use href="#mini-cloud" transform="translate(770 910) scale(0.95)"/>
        <animateTransform attributeName="transform" type="translate"
          values="0 0; -520 520" keyTimes="0;1" dur="13s"
          repeatCount="indefinite" calcMode="linear"/>
      </g>
    </pattern>

    <linearGradient id="fade" x1="0" y1="0" x2="0" y2="1">
      <stop offset="0"    stop-color="white" stop-opacity="0"/>
      <stop offset="0.07" stop-color="white" stop-opacity="1"/>
      <stop offset="0.93" stop-color="white" stop-opacity="1"/>
      <stop offset="1"    stop-color="white" stop-opacity="0"/>
    </linearGradient>
    <mask id="edge-fade">
      <rect x="0" y="0" width="800" height="600" fill="url(#fade)"/>
    </mask>
  </defs>

  <rect x="0" y="0" width="800" height="600" fill="url(#clouds)" mask="url(#edge-fade)"/>
</svg>
