<svg xmlns="http://www.w3.org/2000/svg" viewBox="0 0 800 450" width="800" height="450" shape-rendering="crispEdges">
  <!-- Background -->
  <rect x="0" y="0" width="800" height="450" fill="#00180B"/>

  <!-- Terminal window — centred with safe margin all around -->
  <!-- Title bar -->
  <rect x="220" y="120" width="360" height="36" fill="#38B000"/>
  <rect x="220" y="120" width="8"   height="36"  fill="#38B000"/>
  <rect x="572" y="120" width="8"   height="36"  fill="#38B000"/>

  <!-- Window body outline -->
  <rect x="220" y="156" width="8"   height="180" fill="#50FC00"/>
  <rect x="572" y="156" width="8"   height="180" fill="#50FC00"/>
  <rect x="220" y="328" width="360" height="8"   fill="#50FC00"/>

  <!-- Title bar dots -->
  <rect x="236" y="130" width="16" height="16" fill="#84FF4A"/>
  <rect x="260" y="130" width="16" height="16" fill="#84FF4A"/>
  <rect x="284" y="130" width="16" height="16" fill="#84FF4A"/>

  <!-- Title bar label block -->
  <rect x="400" y="134" width="120" height="8" fill="#84FF4A" opacity="0.6"/>

  <!-- Terminal content — prompt and cursor -->
  <rect x="244" y="180" width="20" height="12" fill="#84FF4A"/>
  <rect x="272" y="180" width="8"  height="12" fill="#50FC00"/>
  <rect x="288" y="176" width="20" height="20" fill="#50FC00"/>

  <!-- Command line -->
  <rect x="244" y="212" width="20" height="8"  fill="#84FF4A"/>
  <rect x="272" y="212" width="100" height="8" fill="#50FC00"/>

  <!-- Output lines -->
  <rect x="244" y="236" width="240" height="8" fill="#38B000"/>
  <rect x="244" y="252" width="180" height="8" fill="#38B000"/>
  <rect x="244" y="268" width="220" height="8" fill="#38B000"/>

  <!-- Second prompt with cursor -->
  <rect x="244" y="296" width="20" height="8"  fill="#84FF4A"/>
  <rect x="272" y="292" width="20" height="20" fill="#50FC00"/>

</svg>
